<svg width="148" height="39" viewBox="0 0 148 39" fill="none" xmlns="http://www.w3.org/2000/svg">
<path d="M16.36 14.24C17.1333 14.7467 17.7867 15.3467 18.32 16.04C18.88 16.7067 19.32 17.5333 19.64 18.52C19.9867 19.6133 20.16 20.72 20.16 21.84C20.1867 22.9333 19.9867 23.96 19.56 24.92C19.16 25.8533 18.5067 26.68 17.6 27.4C16.72 28.0933 15.56 28.5867 14.12 28.88C13.3467 29.0667 12.44 29.2133 11.4 29.32C10.36 29.4267 9.42667 29.48 8.6 29.48C7.56 29.5067 6.48 29.5067 5.36 29.48C4.26667 29.48 3.2 29.3733 2.16 29.16C1.70667 29.0267 1.37333 28.8 1.16 28.48C0.973333 28.1333 0.84 27.7467 0.76 27.32C0.653333 27.08 0.6 26.84 0.6 26.6V3.88C0.6 3.13333 0.746667 2.56 1.04 2.16C1.36 1.73333 1.77333 1.42667 2.28 1.24C2.78667 1.02667 3.36 0.906666 4 0.88C4.64 0.826665 5.30667 0.799998 6 0.799998C6.53333 0.799998 7.06667 0.799998 7.6 0.799998C8.16 0.773332 8.72 0.773332 9.28 0.799998C10.16 0.826665 11.0667 0.906664 12 1.04C12.96 1.14666 13.8667 1.36 14.72 1.68C15.12 1.81333 15.5467 2 16 2.24C16.4533 2.45333 16.8133 2.72 17.08 3.04C17.9333 3.81333 18.56 4.72 18.96 5.76C19.3867 6.77333 19.5733 7.81333 19.52 8.88C19.4667 9.92 19.1733 10.92 18.64 11.88C18.1333 12.84 17.3733 13.6267 16.36 14.24ZM9.36 24.84C10.1867 24.7867 11.0267 24.6933 11.88 24.56C12.7333 24.4267 13.32 24.1733 13.64 23.8C13.9867 23.3733 14.2267 22.88 14.36 22.32C14.52 21.7333 14.56 21.1467 14.48 20.56C14.4267 19.9467 14.2533 19.3733 13.96 18.84C13.6933 18.28 13.3333 17.84 12.88 17.52C12.2667 17.04 11.56 16.7333 10.76 16.6C9.96 16.44 9.17333 16.36 8.4 16.36C8.02667 16.36 7.68 16.3733 7.36 16.4C7.06667 16.4 6.8 16.44 6.56 16.52C6.34667 16.5733 6.18667 16.6933 6.08 16.88C5.97333 17.0667 5.92 17.3467 5.92 17.72C5.97333 18.4133 5.97333 19.1067 5.92 19.8C5.86667 20.4933 5.84 21.16 5.84 21.8C5.84 22.1733 5.82667 22.5867 5.8 23.04C5.8 23.4667 5.94667 23.8267 6.24 24.12C6.53333 24.4133 6.96 24.6133 7.52 24.72C8.08 24.8267 8.69333 24.8667 9.36 24.84ZM10.16 5.64C9.33333 5.61333 8.64 5.6 8.08 5.6C7.54667 5.57333 7.12 5.61333 6.8 5.72C6.50667 5.8 6.29333 6 6.16 6.32C6.05333 6.61333 6.01333 7.06666 6.04 7.68C6.04 8.18667 6.02667 8.69333 6 9.2C6 9.68 6 10.16 6 10.64C6 11.1733 6.17333 11.5733 6.52 11.84C6.86667 12.08 7.29333 12.2267 7.8 12.28C8.33333 12.3333 8.88 12.3333 9.44 12.28C10.0267 12.2267 10.5333 12.16 10.96 12.08C11.92 11.92 12.6533 11.6 13.16 11.12C13.6933 10.6133 14 9.88 14.08 8.92C14.1867 7.72 13.8667 6.89333 13.12 6.44C12.4 5.96 11.4133 5.69333 10.16 5.64ZM39.3056 19.48C39.2523 20.36 39.199 21.2533 39.1456 22.16C39.0923 23.04 38.9456 23.8933 38.7056 24.72C38.4923 25.5467 38.1456 26.2933 37.6656 26.96C37.2123 27.6267 36.559 28.16 35.7056 28.56C34.959 28.9333 34.159 29.1867 33.3056 29.32C32.4523 29.48 31.599 29.5467 30.7456 29.52C29.8923 29.4933 29.0656 29.36 28.2656 29.12C27.4656 28.9067 26.7456 28.6 26.1056 28.2C25.4656 27.8 24.9456 27.28 24.5456 26.64C24.1456 26 23.8256 25.3067 23.5856 24.56C23.3723 23.8133 23.2256 23.04 23.1456 22.24C23.0656 21.44 23.0123 20.6933 22.9856 20C22.879 18.16 22.879 16.3467 22.9856 14.56C22.9856 14.2133 22.9856 13.8267 22.9856 13.4C22.9856 12.9467 23.0123 12.5067 23.0656 12.08C23.1456 11.6533 23.2656 11.2667 23.4256 10.92C23.5856 10.5467 23.8523 10.2667 24.2256 10.08C25.0256 9.65333 25.759 9.62667 26.4256 10C27.119 10.3733 27.5323 11.1467 27.6656 12.32C27.7456 12.9333 27.7723 13.6133 27.7456 14.36C27.7456 15.1067 27.7723 15.7867 27.8256 16.4C27.8523 17.3067 27.879 18.2933 27.9056 19.36C27.9323 20.4 28.079 21.3333 28.3456 22.16C28.639 22.9867 29.1056 23.6133 29.7456 24.04C30.4123 24.44 31.399 24.4533 32.7056 24.08C33.319 23.8933 33.719 23.4267 33.9056 22.68C34.119 21.9333 34.2256 20.8267 34.2256 19.36C34.2256 18.72 34.2123 18.0133 34.1856 17.24C34.159 16.4667 34.1456 15.7067 34.1456 14.96C34.1456 14.1867 34.159 13.48 34.1856 12.84C34.239 12.1733 34.319 11.6667 34.4256 11.32C34.559 10.84 34.839 10.48 35.2656 10.24C35.6923 10 36.1456 9.88 36.6256 9.88C37.1056 9.85333 37.559 9.94667 37.9856 10.16C38.4123 10.3733 38.7056 10.72 38.8656 11.2C39.0256 11.6267 39.1323 12.1733 39.1856 12.84C39.2656 13.48 39.319 14.1867 39.3456 14.96C39.3723 15.7067 39.3723 16.48 39.3456 17.28C39.3456 18.0533 39.3323 18.7867 39.3056 19.48ZM55.0722 1.04C55.5789 0.906664 56.0189 0.893331 56.3922 0.999998C56.7922 1.08 57.1255 1.25333 57.3922 1.52C57.6855 1.78666 57.8989 2.12 58.0322 2.52C58.1922 2.92 58.2722 3.36 58.2722 3.84C58.2989 5.17333 58.2989 6.21333 58.2722 6.96C58.2722 7.70667 58.2722 8.36 58.2722 8.92V21.2C58.2722 22.64 58.2722 23.84 58.2722 24.8C58.2722 25.76 58.2189 26.5467 58.1122 27.16C58.0322 27.7467 57.8722 28.1867 57.6322 28.48C57.4189 28.7733 57.0855 28.9733 56.6322 29.08C56.1789 29.2133 55.5789 29.28 54.8322 29.28C54.1122 29.28 53.2055 29.28 52.1122 29.28C49.2322 29.28 46.9522 28.6 45.2722 27.24C43.6189 25.88 42.7389 23.72 42.6322 20.76C42.5789 19.48 42.7389 18.3067 43.1122 17.24C43.4855 16.1733 44.0322 15.2667 44.7522 14.52C45.4989 13.7467 46.4055 13.16 47.4722 12.76C48.5655 12.3333 49.8055 12.1333 51.1922 12.16H53.3922V5C53.3922 4.57333 53.3922 4.16 53.3922 3.76C53.3922 3.33333 53.4322 2.94667 53.5122 2.6C53.5922 2.22667 53.7522 1.90667 53.9922 1.64C54.2322 1.37333 54.5922 1.17333 55.0722 1.04ZM48.1122 23.24C48.6722 24.0133 49.6855 24.44 51.1522 24.52C51.4455 24.5467 51.7255 24.56 51.9922 24.56C52.2589 24.5333 52.4989 24.4933 52.7122 24.44C52.9522 24.4133 53.1789 24.3733 53.3922 24.32V16.92C52.4589 16.76 51.6055 16.6667 50.8322 16.64C50.0855 16.5867 49.3389 16.8533 48.5922 17.44C48.1922 17.76 47.8855 18.1733 47.6722 18.68C47.4589 19.16 47.3389 19.68 47.3122 20.24C47.2855 20.7733 47.3389 21.3067 47.4722 21.84C47.6055 22.3733 47.8189 22.84 48.1122 23.24ZM78.0984 21.44C78.0984 22.2933 78.0718 23.2133 78.0184 24.2C77.9918 25.1867 77.9518 26.1067 77.8984 26.96C77.8984 27.76 77.8584 28.56 77.7784 29.36C77.7251 30.0533 77.6184 30.8 77.4584 31.6C77.2984 32.4267 77.0718 33.1867 76.7784 33.88C76.4051 34.7867 75.8984 35.56 75.2584 36.2C74.6184 36.8667 73.7918 37.3467 72.7784 37.64C71.9251 37.8533 71.1251 37.9867 70.3784 38.04C69.6318 38.12 68.8318 38.1067 67.9784 38C67.4184 37.92 66.8184 37.76 66.1784 37.52C65.5384 37.3067 64.9384 37.0267 64.3784 36.68C63.8184 36.3333 63.3251 35.92 62.8984 35.44C62.4718 34.9867 62.1784 34.4667 62.0184 33.88C61.8318 33.16 61.8184 32.5333 61.9784 32C62.1651 31.4667 62.4451 31.08 62.8184 30.84C63.1918 30.6 63.6318 30.56 64.1384 30.72C64.6451 30.88 65.1251 31.2933 65.5784 31.96C65.8984 32.44 66.3651 32.8267 66.9784 33.12C67.5918 33.4133 68.2451 33.5867 68.9384 33.64C69.6318 33.6933 70.2984 33.6 70.9384 33.36C71.6051 33.1467 72.1251 32.76 72.4984 32.2C72.7651 31.8 72.9518 31.2267 73.0584 30.48C73.1918 29.7333 73.2718 29 73.2984 28.28C71.9384 28.84 70.5384 29.0533 69.0984 28.92C67.6851 28.76 66.3918 28.32 65.2184 27.6C64.0718 26.8533 63.1384 25.8667 62.4184 24.64C61.7251 23.3867 61.4318 21.9733 61.5384 20.4C61.6184 19.04 61.8984 17.76 62.3784 16.56C62.8851 15.36 63.7118 14.36 64.8584 13.56C65.7918 12.92 66.8451 12.5067 68.0184 12.32C69.1918 12.1067 70.3251 12 71.4184 12C72.0584 12 72.6851 12 73.2984 12C73.9384 12 74.5251 12.08 75.0584 12.24C75.5918 12.4 76.0718 12.6667 76.4984 13.04C76.9251 13.4133 77.2451 13.96 77.4584 14.68C77.8051 15.8 77.9918 16.9067 78.0184 18C78.0718 19.0933 78.0984 20.24 78.0984 21.44ZM70.3784 24.76C70.6451 24.76 70.8984 24.7333 71.1384 24.68C71.4051 24.6267 71.6584 24.56 71.8984 24.48C72.3518 24.32 72.6851 24.1067 72.8984 23.84C73.1384 23.5733 73.2984 23.28 73.3784 22.96C73.4584 22.6133 73.4851 22.24 73.4584 21.84C73.4584 21.44 73.4584 21.0267 73.4584 20.6C73.4584 20.2533 73.4451 19.8667 73.4184 19.44C73.4184 19.0133 73.3918 18.6133 73.3384 18.24C73.2851 17.84 73.2051 17.4933 73.0984 17.2C72.9918 16.9067 72.8318 16.72 72.6184 16.64C72.2451 16.5333 71.8184 16.4667 71.3384 16.44C70.8584 16.3867 70.3784 16.3867 69.8984 16.44C69.4184 16.4667 68.9518 16.56 68.4984 16.72C68.0718 16.8533 67.7118 17.04 67.4184 17.28C67.0184 17.6267 66.7118 18.0533 66.4984 18.56C66.2851 19.0667 66.1518 19.6 66.0984 20.16C66.0718 20.72 66.1118 21.2667 66.2184 21.8C66.3518 22.3333 66.5784 22.8133 66.8984 23.24C67.2718 23.7733 67.7784 24.16 68.4184 24.4C69.0584 24.64 69.7118 24.76 70.3784 24.76ZM95.1822 23.52C95.5022 23.44 95.8222 23.3867 96.1422 23.36C96.4889 23.3333 96.7955 23.3733 97.0622 23.48C97.3555 23.5867 97.5955 23.7733 97.7822 24.04C97.9689 24.28 98.0622 24.6267 98.0622 25.08C98.0622 25.4 97.9822 25.7067 97.8222 26C97.6622 26.2933 97.4622 26.56 97.2222 26.8C96.9822 27.04 96.7155 27.2533 96.4222 27.44C96.1289 27.6 95.8489 27.7333 95.5822 27.84C94.8089 28.1867 93.9155 28.4533 92.9022 28.64C91.9155 28.8267 90.8889 28.8933 89.8222 28.84C88.3822 28.7867 86.9955 28.5067 85.6622 28C84.3555 27.4667 83.3289 26.6 82.5822 25.4C81.8889 24.2267 81.4755 22.92 81.3422 21.48C81.2089 20.04 81.2755 18.68 81.5422 17.4C81.8355 15.8533 82.3289 14.6 83.0222 13.64C83.7422 12.6533 84.5955 11.8667 85.5822 11.28C86.7822 10.5867 88.1289 10.2267 89.6222 10.2C91.1155 10.1733 92.5422 10.4667 93.9022 11.08C94.8089 11.48 95.6222 12.0267 96.3422 12.72C97.0622 13.3867 97.6089 14.2 97.9822 15.16C98.0889 15.4 98.1689 15.6933 98.2222 16.04C98.3022 16.3867 98.3555 16.76 98.3822 17.16C98.4089 17.5333 98.4089 17.9067 98.3822 18.28C98.3555 18.6533 98.2889 18.9867 98.1822 19.28C98.0222 19.76 97.8222 20.1333 97.5822 20.4C97.3422 20.6667 97.0355 20.8667 96.6622 21C96.2889 21.1333 95.8355 21.2267 95.3022 21.28C94.7955 21.3067 94.1822 21.3333 93.4622 21.36C92.8222 21.3867 92.2222 21.4 91.6622 21.4C91.1022 21.4 90.5289 21.4 89.9422 21.4C89.3555 21.3733 88.7422 21.36 88.1022 21.36C87.4889 21.3333 86.7955 21.3067 86.0222 21.28C85.9422 21.8133 86.0089 22.28 86.2222 22.68C86.4622 23.0533 86.7822 23.3733 87.1822 23.64C87.5822 23.88 88.0355 24.0667 88.5422 24.2C89.0489 24.3333 89.5422 24.4133 90.0222 24.44C90.9289 24.4933 91.7955 24.4267 92.6222 24.24C93.4489 24.0267 94.3022 23.7867 95.1822 23.52ZM93.4622 15.76C92.9555 15.1733 92.4222 14.7467 91.8622 14.48C91.4355 14.2933 90.9822 14.2133 90.5022 14.24C90.0489 14.24 89.6089 14.3067 89.1822 14.44C88.4089 14.6267 87.7555 15.0267 87.2222 15.64C87.1689 15.6933 87.0755 15.8267 86.9422 16.04C86.8089 16.2267 86.6755 16.4267 86.5422 16.64C86.4355 16.8533 86.3555 17.0533 86.3022 17.24C86.2489 17.4267 86.2755 17.52 86.3822 17.52H94.2222C94.1955 17.1467 94.1289 16.84 94.0222 16.6C93.9155 16.3333 93.7289 16.0533 93.4622 15.76ZM117.094 11.36C117.307 11.8667 117.321 12.4267 117.134 13.04C116.974 13.6533 116.667 14.0533 116.214 14.24C115.974 14.3467 115.654 14.44 115.254 14.52C114.854 14.5733 114.414 14.6267 113.934 14.68C113.481 14.7333 113.027 14.7733 112.574 14.8C112.121 14.8267 111.734 14.84 111.414 14.84C111.441 15.64 111.467 16.4667 111.494 17.32C111.521 18.1467 111.547 18.96 111.574 19.76C111.601 20.56 111.614 21.3333 111.614 22.08C111.614 22.8 111.601 23.4533 111.574 24.04C111.574 24.44 111.574 24.9067 111.574 25.44C111.574 25.9467 111.534 26.44 111.454 26.92C111.401 27.4 111.307 27.8267 111.174 28.2C111.041 28.5467 110.841 28.7733 110.574 28.88C109.747 29.2267 108.987 29.32 108.294 29.16C107.627 29.0267 107.147 28.7467 106.854 28.32C106.641 27.9733 106.481 27.5733 106.374 27.12C106.267 26.64 106.187 26.16 106.134 25.68C106.107 25.1733 106.094 24.6933 106.094 24.24C106.121 23.76 106.134 23.3467 106.134 23C106.161 21.88 106.174 20.6133 106.174 19.2C106.201 17.76 106.214 16.32 106.214 14.88H105.614C105.294 14.88 104.881 14.88 104.374 14.88C103.894 14.8533 103.401 14.8133 102.894 14.76C102.414 14.68 101.961 14.5867 101.534 14.48C101.107 14.3467 100.801 14.16 100.614 13.92C100.321 13.5733 100.134 13.2 100.054 12.8C100.001 12.4 100.027 12.0267 100.134 11.68C100.267 11.3067 100.467 10.9867 100.734 10.72C101.001 10.4267 101.307 10.24 101.654 10.16C102.134 10.0267 102.814 9.96 103.694 9.96C104.574 9.93333 105.401 9.93333 106.174 9.96C106.147 9.69333 106.134 9.44 106.134 9.2C106.134 8.93333 106.121 8.68 106.094 8.44C106.067 8.12 106.054 7.72 106.054 7.24C106.054 6.73333 106.081 6.24 106.134 5.76C106.214 5.25333 106.334 4.78667 106.494 4.36C106.654 3.90667 106.881 3.56 107.174 3.32C107.574 3 107.974 2.82667 108.374 2.8C108.801 2.74667 109.187 2.8 109.534 2.96C109.907 3.12 110.214 3.36 110.454 3.68C110.721 3.97333 110.907 4.30667 111.014 4.68C111.094 5 111.161 5.38667 111.214 5.84C111.267 6.26667 111.294 6.72 111.294 7.2C111.321 7.68 111.334 8.16 111.334 8.64C111.334 9.12 111.334 9.56 111.334 9.96H111.734C112.134 9.96 112.601 9.94667 113.134 9.92C113.667 9.89333 114.187 9.90667 114.694 9.96C115.227 10.0133 115.707 10.1467 116.134 10.36C116.561 10.5467 116.881 10.88 117.094 11.36ZM125.803 25.8C125.776 25.9333 125.749 26.0667 125.723 26.2C125.723 26.3067 125.723 26.4267 125.723 26.56L125.483 27.4C125.429 27.5067 125.389 27.5733 125.363 27.6L125.243 27.84C125.109 28.1333 124.869 28.3733 124.523 28.56C123.883 28.88 123.203 28.96 122.483 28.8C122.029 28.7467 121.669 28.6133 121.403 28.4C121.136 28.2133 120.949 27.9867 120.843 27.72C120.736 27.4533 120.656 27.1867 120.603 26.92C120.523 26.6533 120.483 26.4133 120.483 26.2V3.8C120.483 3.61333 120.483 3.45333 120.483 3.32C120.509 3.16 120.536 3.01333 120.563 2.88C120.589 2.69333 120.616 2.53333 120.643 2.4C120.696 2.26667 120.749 2.12 120.803 1.96C120.883 1.69333 121.029 1.48 121.243 1.32C121.563 1.08 121.869 0.946665 122.163 0.919999C122.349 0.866665 122.523 0.839998 122.683 0.839998C122.843 0.813331 123.029 0.799998 123.243 0.799998C123.616 0.799998 124.043 0.906665 124.523 1.12C124.896 1.33333 125.163 1.62667 125.323 2C125.589 2.53333 125.723 3.02667 125.723 3.48C125.749 3.74667 125.763 4.14667 125.763 4.68C125.789 5.21333 125.803 5.61333 125.803 5.88V6.04C125.856 6.89333 125.883 7.72 125.883 8.52C125.883 9.29333 125.869 10.1467 125.843 11.08C125.843 11.9867 125.829 12.8667 125.803 13.72C125.803 14.5467 125.803 15.3733 125.803 16.2V24.6C125.803 24.7067 125.803 24.8133 125.803 24.92C125.829 25 125.843 25.0933 125.843 25.2C125.843 25.4667 125.829 25.6667 125.803 25.8ZM147.437 11.16C147.677 11.5333 147.783 11.9333 147.757 12.36C147.757 12.9733 147.65 13.5067 147.437 13.96C147.383 14.0933 147.303 14.2667 147.197 14.48C147.117 14.6933 147.023 14.92 146.917 15.16C146.837 15.4 146.743 15.6267 146.637 15.84C146.53 16.0533 146.45 16.2133 146.397 16.32L146.317 16.52C145.943 17.3467 145.583 18.1467 145.237 18.92C144.89 19.6933 144.503 20.52 144.077 21.4C143.65 22.2533 143.237 23.0933 142.837 23.92C142.463 24.72 142.09 25.5067 141.717 26.28C141.61 26.4933 141.517 26.7067 141.437 26.92C141.357 27.1067 141.25 27.3067 141.117 27.52L139.197 31.64C138.85 32.3333 138.517 33.0133 138.197 33.68C137.903 34.3467 137.57 35.0133 137.197 35.68C137.117 35.8133 137.037 35.9333 136.957 36.04C136.903 36.1733 136.85 36.3067 136.797 36.44C136.61 36.76 136.33 37.0667 135.957 37.36C135.61 37.68 135.237 37.8533 134.837 37.88C134.117 37.9333 133.49 37.72 132.957 37.24C132.637 37.0533 132.383 36.7867 132.197 36.44C132.09 36.2 132.037 35.8933 132.037 35.52C132.063 35.36 132.077 35.2 132.077 35.04C132.103 34.9067 132.13 34.7733 132.157 34.64C132.21 34.5067 132.25 34.3733 132.277 34.24C132.303 34.1067 132.343 34 132.397 33.92C132.477 33.7067 132.543 33.6 132.597 33.6L135.517 27.28C135.383 26.9867 135.25 26.6933 135.117 26.4C134.983 26.08 134.863 25.8 134.757 25.56C134.41 24.7333 134.037 23.8667 133.637 22.96C133.263 22.0267 132.877 21.1067 132.477 20.2C132.077 19.2667 131.663 18.36 131.237 17.48C130.81 16.6 130.383 15.76 129.957 14.96C129.797 14.6933 129.65 14.4133 129.517 14.12C129.383 13.8 129.277 13.4933 129.197 13.2C129.117 12.88 129.09 12.56 129.117 12.24C129.143 11.92 129.263 11.6 129.477 11.28C129.69 10.88 129.97 10.6 130.317 10.44C130.663 10.2533 131.023 10.1733 131.397 10.2C131.797 10.2 132.17 10.28 132.517 10.44C132.863 10.6 133.143 10.8133 133.357 11.08C133.81 11.56 134.17 12.0933 134.437 12.68C134.703 13.2667 134.957 13.8667 135.197 14.48C135.703 15.5467 136.223 16.6667 136.757 17.84C137.29 19.0133 137.823 20.16 138.357 21.28L140.437 16.88C140.65 16.4533 140.837 16.04 140.997 15.64C141.183 15.24 141.37 14.8533 141.557 14.48C141.77 14.0267 141.97 13.56 142.157 13.08C142.37 12.6 142.61 12.16 142.877 11.76C142.93 11.6533 142.983 11.56 143.037 11.48C143.09 11.4 143.143 11.3067 143.197 11.2C143.437 10.88 143.65 10.6267 143.837 10.44C143.97 10.3333 144.077 10.2533 144.157 10.2C144.263 10.12 144.383 10.0667 144.517 10.04C144.703 9.98667 144.877 9.96 145.037 9.96C145.223 9.93333 145.397 9.93333 145.557 9.96C145.823 10.04 146.143 10.16 146.517 10.32C146.917 10.48 147.223 10.76 147.437 11.16Z" fill="white"/>
</svg>
